<?xml version="1.0"?>
<svg xmlns="http://www.w3.org/2000/svg" xmlns:xlink="http://www.w3.org/1999/xlink" version="1.1" width="320px" height="320px" viewBox="0 0 320 320"><defs><rect id="block" width="12.0000000000" height="12.0000000000" fill="#000000" fill-opacity="1"/></defs><rect x="0" y="0" width="320" height="320" fill="#ffffff" fill-opacity="1"/><use x="10.0000000000" y="10.0000000000" xlink:href="#block"/><use x="22.0000000000" y="10.0000000000" xlink:href="#block"/><use x="34.0000000000" y="10.0000000000" xlink:href="#block"/><use x="46.0000000000" y="10.0000000000" xlink:href="#block"/><use x="58.0000000000" y="10.0000000000" xlink:href="#block"/><use x="70.0000000000" y="10.0000000000" xlink:href="#block"/><use x="82.0000000000" y="10.0000000000" xlink:href="#block"/><use x="130.0000000000" y="10.0000000000" xlink:href="#block"/><use x="154.0000000000" y="10.0000000000" xlink:href="#block"/><use x="190.0000000000" y="10.0000000000" xlink:href="#block"/><use x="202.0000000000" y="10.0000000000" xlink:href="#block"/><use x="226.0000000000" y="10.0000000000" xlink:href="#block"/><use x="238.0000000000" y="10.0000000000" xlink:href="#block"/><use x="250.0000000000" y="10.0000000000" xlink:href="#block"/><use x="262.0000000000" y="10.0000000000" xlink:href="#block"/><use x="274.0000000000" y="10.0000000000" xlink:href="#block"/><use x="286.0000000000" y="10.0000000000" xlink:href="#block"/><use x="298.0000000000" y="10.0000000000" xlink:href="#block"/><use x="10.0000000000" y="22.0000000000" xlink:href="#block"/><use x="82.0000000000" y="22.0000000000" xlink:href="#block"/><use x="106.0000000000" y="22.0000000000" xlink:href="#block"/><use x="130.0000000000" y="22.0000000000" xlink:href="#block"/><use x="166.0000000000" y="22.0000000000" xlink:href="#block"/><use x="190.0000000000" y="22.0000000000" xlink:href="#block"/><use x="202.0000000000" y="22.0000000000" xlink:href="#block"/><use x="226.0000000000" y="22.0000000000" xlink:href="#block"/><use x="298.0000000000" y="22.0000000000" xlink:href="#block"/><use x="10.0000000000" y="34.0000000000" xlink:href="#block"/><use x="34.0000000000" y="34.0000000000" xlink:href="#block"/><use x="46.0000000000" y="34.0000000000" xlink:href="#block"/><use x="58.0000000000" y="34.0000000000" xlink:href="#block"/><use x="82.0000000000" y="34.0000000000" xlink:href="#block"/><use x="154.0000000000" y="34.0000000000" xlink:href="#block"/><use x="178.0000000000" y="34.0000000000" xlink:href="#block"/><use x="226.0000000000" y="34.0000000000" xlink:href="#block"/><use x="250.0000000000" y="34.0000000000" xlink:href="#block"/><use x="262.0000000000" y="34.0000000000" xlink:href="#block"/><use x="274.0000000000" y="34.0000000000" xlink:href="#block"/><use x="298.0000000000" y="34.0000000000" xlink:href="#block"/><use x="10.0000000000" y="46.0000000000" xlink:href="#block"/><use x="34.0000000000" y="46.0000000000" xlink:href="#block"/><use x="46.0000000000" y="46.0000000000" xlink:href="#block"/><use x="58.0000000000" y="46.0000000000" xlink:href="#block"/><use x="82.0000000000" y="46.0000000000" xlink:href="#block"/><use x="106.0000000000" y="46.0000000000" xlink:href="#block"/><use x="118.0000000000" y="46.0000000000" xlink:href="#block"/><use x="130.0000000000" y="46.0000000000" xlink:href="#block"/><use x="154.0000000000" y="46.0000000000" xlink:href="#block"/><use x="166.0000000000" y="46.0000000000" xlink:href="#block"/><use x="190.0000000000" y="46.0000000000" xlink:href="#block"/><use x="226.0000000000" y="46.0000000000" xlink:href="#block"/><use x="250.0000000000" y="46.0000000000" xlink:href="#block"/><use x="262.0000000000" y="46.0000000000" xlink:href="#block"/><use x="274.0000000000" y="46.0000000000" xlink:href="#block"/><use x="298.0000000000" y="46.0000000000" xlink:href="#block"/><use x="10.0000000000" y="58.0000000000" xlink:href="#block"/><use x="34.0000000000" y="58.0000000000" xlink:href="#block"/><use x="46.0000000000" y="58.0000000000" xlink:href="#block"/><use x="58.0000000000" y="58.0000000000" xlink:href="#block"/><use x="82.0000000000" y="58.0000000000" xlink:href="#block"/><use x="118.0000000000" y="58.0000000000" xlink:href="#block"/><use x="226.0000000000" y="58.0000000000" xlink:href="#block"/><use x="250.0000000000" y="58.0000000000" xlink:href="#block"/><use x="262.0000000000" y="58.0000000000" xlink:href="#block"/><use x="274.0000000000" y="58.0000000000" xlink:href="#block"/><use x="298.0000000000" y="58.0000000000" xlink:href="#block"/><use x="10.0000000000" y="70.0000000000" xlink:href="#block"/><use x="82.0000000000" y="70.0000000000" xlink:href="#block"/><use x="106.0000000000" y="70.0000000000" xlink:href="#block"/><use x="118.0000000000" y="70.0000000000" xlink:href="#block"/><use x="142.0000000000" y="70.0000000000" xlink:href="#block"/><use x="154.0000000000" y="70.0000000000" xlink:href="#block"/><use x="190.0000000000" y="70.0000000000" xlink:href="#block"/><use x="202.0000000000" y="70.0000000000" xlink:href="#block"/><use x="226.0000000000" y="70.0000000000" xlink:href="#block"/><use x="298.0000000000" y="70.0000000000" xlink:href="#block"/><use x="10.0000000000" y="82.0000000000" xlink:href="#block"/><use x="22.0000000000" y="82.0000000000" xlink:href="#block"/><use x="34.0000000000" y="82.0000000000" xlink:href="#block"/><use x="46.0000000000" y="82.0000000000" xlink:href="#block"/><use x="58.0000000000" y="82.0000000000" xlink:href="#block"/><use x="70.0000000000" y="82.0000000000" xlink:href="#block"/><use x="82.0000000000" y="82.0000000000" xlink:href="#block"/><use x="106.0000000000" y="82.0000000000" xlink:href="#block"/><use x="130.0000000000" y="82.0000000000" xlink:href="#block"/><use x="154.0000000000" y="82.0000000000" xlink:href="#block"/><use x="178.0000000000" y="82.0000000000" xlink:href="#block"/><use x="202.0000000000" y="82.0000000000" xlink:href="#block"/><use x="226.0000000000" y="82.0000000000" xlink:href="#block"/><use x="238.0000000000" y="82.0000000000" xlink:href="#block"/><use x="250.0000000000" y="82.0000000000" xlink:href="#block"/><use x="262.0000000000" y="82.0000000000" xlink:href="#block"/><use x="274.0000000000" y="82.0000000000" xlink:href="#block"/><use x="286.0000000000" y="82.0000000000" xlink:href="#block"/><use x="298.0000000000" y="82.0000000000" xlink:href="#block"/><use x="118.0000000000" y="94.0000000000" xlink:href="#block"/><use x="130.0000000000" y="94.0000000000" xlink:href="#block"/><use x="142.0000000000" y="94.0000000000" xlink:href="#block"/><use x="10.0000000000" y="106.0000000000" xlink:href="#block"/><use x="22.0000000000" y="106.0000000000" xlink:href="#block"/><use x="34.0000000000" y="106.0000000000" xlink:href="#block"/><use x="46.0000000000" y="106.0000000000" xlink:href="#block"/><use x="58.0000000000" y="106.0000000000" xlink:href="#block"/><use x="82.0000000000" y="106.0000000000" xlink:href="#block"/><use x="94.0000000000" y="106.0000000000" xlink:href="#block"/><use x="106.0000000000" y="106.0000000000" xlink:href="#block"/><use x="118.0000000000" y="106.0000000000" xlink:href="#block"/><use x="142.0000000000" y="106.0000000000" xlink:href="#block"/><use x="190.0000000000" y="106.0000000000" xlink:href="#block"/><use x="202.0000000000" y="106.0000000000" xlink:href="#block"/><use x="214.0000000000" y="106.0000000000" xlink:href="#block"/><use x="238.0000000000" y="106.0000000000" xlink:href="#block"/><use x="262.0000000000" y="106.0000000000" xlink:href="#block"/><use x="286.0000000000" y="106.0000000000" xlink:href="#block"/><use x="34.0000000000" y="118.0000000000" xlink:href="#block"/><use x="46.0000000000" y="118.0000000000" xlink:href="#block"/><use x="70.0000000000" y="118.0000000000" xlink:href="#block"/><use x="106.0000000000" y="118.0000000000" xlink:href="#block"/><use x="130.0000000000" y="118.0000000000" xlink:href="#block"/><use x="154.0000000000" y="118.0000000000" xlink:href="#block"/><use x="166.0000000000" y="118.0000000000" xlink:href="#block"/><use x="190.0000000000" y="118.0000000000" xlink:href="#block"/><use x="202.0000000000" y="118.0000000000" xlink:href="#block"/><use x="226.0000000000" y="118.0000000000" xlink:href="#block"/><use x="286.0000000000" y="118.0000000000" xlink:href="#block"/><use x="10.0000000000" y="130.0000000000" xlink:href="#block"/><use x="22.0000000000" y="130.0000000000" xlink:href="#block"/><use x="46.0000000000" y="130.0000000000" xlink:href="#block"/><use x="58.0000000000" y="130.0000000000" xlink:href="#block"/><use x="70.0000000000" y="130.0000000000" xlink:href="#block"/><use x="82.0000000000" y="130.0000000000" xlink:href="#block"/><use x="106.0000000000" y="130.0000000000" xlink:href="#block"/><use x="130.0000000000" y="130.0000000000" xlink:href="#block"/><use x="166.0000000000" y="130.0000000000" xlink:href="#block"/><use x="178.0000000000" y="130.0000000000" xlink:href="#block"/><use x="202.0000000000" y="130.0000000000" xlink:href="#block"/><use x="226.0000000000" y="130.0000000000" xlink:href="#block"/><use x="238.0000000000" y="130.0000000000" xlink:href="#block"/><use x="250.0000000000" y="130.0000000000" xlink:href="#block"/><use x="262.0000000000" y="130.0000000000" xlink:href="#block"/><use x="274.0000000000" y="130.0000000000" xlink:href="#block"/><use x="298.0000000000" y="130.0000000000" xlink:href="#block"/><use x="10.0000000000" y="142.0000000000" xlink:href="#block"/><use x="22.0000000000" y="142.0000000000" xlink:href="#block"/><use x="34.0000000000" y="142.0000000000" xlink:href="#block"/><use x="58.0000000000" y="142.0000000000" xlink:href="#block"/><use x="70.0000000000" y="142.0000000000" xlink:href="#block"/><use x="94.0000000000" y="142.0000000000" xlink:href="#block"/><use x="106.0000000000" y="142.0000000000" xlink:href="#block"/><use x="154.0000000000" y="142.0000000000" xlink:href="#block"/><use x="166.0000000000" y="142.0000000000" xlink:href="#block"/><use x="214.0000000000" y="142.0000000000" xlink:href="#block"/><use x="238.0000000000" y="142.0000000000" xlink:href="#block"/><use x="262.0000000000" y="142.0000000000" xlink:href="#block"/><use x="286.0000000000" y="142.0000000000" xlink:href="#block"/><use x="10.0000000000" y="154.0000000000" xlink:href="#block"/><use x="70.0000000000" y="154.0000000000" xlink:href="#block"/><use x="82.0000000000" y="154.0000000000" xlink:href="#block"/><use x="94.0000000000" y="154.0000000000" xlink:href="#block"/><use x="118.0000000000" y="154.0000000000" xlink:href="#block"/><use x="130.0000000000" y="154.0000000000" xlink:href="#block"/><use x="154.0000000000" y="154.0000000000" xlink:href="#block"/><use x="178.0000000000" y="154.0000000000" xlink:href="#block"/><use x="190.0000000000" y="154.0000000000" xlink:href="#block"/><use x="214.0000000000" y="154.0000000000" xlink:href="#block"/><use x="274.0000000000" y="154.0000000000" xlink:href="#block"/><use x="286.0000000000" y="154.0000000000" xlink:href="#block"/><use x="298.0000000000" y="154.0000000000" xlink:href="#block"/><use x="10.0000000000" y="166.0000000000" xlink:href="#block"/><use x="34.0000000000" y="166.0000000000" xlink:href="#block"/><use x="58.0000000000" y="166.0000000000" xlink:href="#block"/><use x="70.0000000000" y="166.0000000000" xlink:href="#block"/><use x="106.0000000000" y="166.0000000000" xlink:href="#block"/><use x="118.0000000000" y="166.0000000000" xlink:href="#block"/><use x="190.0000000000" y="166.0000000000" xlink:href="#block"/><use x="202.0000000000" y="166.0000000000" xlink:href="#block"/><use x="214.0000000000" y="166.0000000000" xlink:href="#block"/><use x="250.0000000000" y="166.0000000000" xlink:href="#block"/><use x="286.0000000000" y="166.0000000000" xlink:href="#block"/><use x="298.0000000000" y="166.0000000000" xlink:href="#block"/><use x="10.0000000000" y="178.0000000000" xlink:href="#block"/><use x="34.0000000000" y="178.0000000000" xlink:href="#block"/><use x="46.0000000000" y="178.0000000000" xlink:href="#block"/><use x="58.0000000000" y="178.0000000000" xlink:href="#block"/><use x="70.0000000000" y="178.0000000000" xlink:href="#block"/><use x="82.0000000000" y="178.0000000000" xlink:href="#block"/><use x="94.0000000000" y="178.0000000000" xlink:href="#block"/><use x="106.0000000000" y="178.0000000000" xlink:href="#block"/><use x="142.0000000000" y="178.0000000000" xlink:href="#block"/><use x="154.0000000000" y="178.0000000000" xlink:href="#block"/><use x="190.0000000000" y="178.0000000000" xlink:href="#block"/><use x="214.0000000000" y="178.0000000000" xlink:href="#block"/><use x="226.0000000000" y="178.0000000000" xlink:href="#block"/><use x="250.0000000000" y="178.0000000000" xlink:href="#block"/><use x="262.0000000000" y="178.0000000000" xlink:href="#block"/><use x="274.0000000000" y="178.0000000000" xlink:href="#block"/><use x="298.0000000000" y="178.0000000000" xlink:href="#block"/><use x="10.0000000000" y="190.0000000000" xlink:href="#block"/><use x="46.0000000000" y="190.0000000000" xlink:href="#block"/><use x="58.0000000000" y="190.0000000000" xlink:href="#block"/><use x="70.0000000000" y="190.0000000000" xlink:href="#block"/><use x="94.0000000000" y="190.0000000000" xlink:href="#block"/><use x="142.0000000000" y="190.0000000000" xlink:href="#block"/><use x="178.0000000000" y="190.0000000000" xlink:href="#block"/><use x="202.0000000000" y="190.0000000000" xlink:href="#block"/><use x="214.0000000000" y="190.0000000000" xlink:href="#block"/><use x="238.0000000000" y="190.0000000000" xlink:href="#block"/><use x="262.0000000000" y="190.0000000000" xlink:href="#block"/><use x="286.0000000000" y="190.0000000000" xlink:href="#block"/><use x="298.0000000000" y="190.0000000000" xlink:href="#block"/><use x="10.0000000000" y="202.0000000000" xlink:href="#block"/><use x="34.0000000000" y="202.0000000000" xlink:href="#block"/><use x="58.0000000000" y="202.0000000000" xlink:href="#block"/><use x="82.0000000000" y="202.0000000000" xlink:href="#block"/><use x="106.0000000000" y="202.0000000000" xlink:href="#block"/><use x="130.0000000000" y="202.0000000000" xlink:href="#block"/><use x="142.0000000000" y="202.0000000000" xlink:href="#block"/><use x="190.0000000000" y="202.0000000000" xlink:href="#block"/><use x="202.0000000000" y="202.0000000000" xlink:href="#block"/><use x="214.0000000000" y="202.0000000000" xlink:href="#block"/><use x="226.0000000000" y="202.0000000000" xlink:href="#block"/><use x="238.0000000000" y="202.0000000000" xlink:href="#block"/><use x="250.0000000000" y="202.0000000000" xlink:href="#block"/><use x="298.0000000000" y="202.0000000000" xlink:href="#block"/><use x="106.0000000000" y="214.0000000000" xlink:href="#block"/><use x="154.0000000000" y="214.0000000000" xlink:href="#block"/><use x="166.0000000000" y="214.0000000000" xlink:href="#block"/><use x="178.0000000000" y="214.0000000000" xlink:href="#block"/><use x="202.0000000000" y="214.0000000000" xlink:href="#block"/><use x="250.0000000000" y="214.0000000000" xlink:href="#block"/><use x="298.0000000000" y="214.0000000000" xlink:href="#block"/><use x="10.0000000000" y="226.0000000000" xlink:href="#block"/><use x="22.0000000000" y="226.0000000000" xlink:href="#block"/><use x="34.0000000000" y="226.0000000000" xlink:href="#block"/><use x="46.0000000000" y="226.0000000000" xlink:href="#block"/><use x="58.0000000000" y="226.0000000000" xlink:href="#block"/><use x="70.0000000000" y="226.0000000000" xlink:href="#block"/><use x="82.0000000000" y="226.0000000000" xlink:href="#block"/><use x="106.0000000000" y="226.0000000000" xlink:href="#block"/><use x="130.0000000000" y="226.0000000000" xlink:href="#block"/><use x="166.0000000000" y="226.0000000000" xlink:href="#block"/><use x="178.0000000000" y="226.0000000000" xlink:href="#block"/><use x="190.0000000000" y="226.0000000000" xlink:href="#block"/><use x="202.0000000000" y="226.0000000000" xlink:href="#block"/><use x="226.0000000000" y="226.0000000000" xlink:href="#block"/><use x="250.0000000000" y="226.0000000000" xlink:href="#block"/><use x="262.0000000000" y="226.0000000000" xlink:href="#block"/><use x="274.0000000000" y="226.0000000000" xlink:href="#block"/><use x="286.0000000000" y="226.0000000000" xlink:href="#block"/><use x="298.0000000000" y="226.0000000000" xlink:href="#block"/><use x="10.0000000000" y="238.0000000000" xlink:href="#block"/><use x="82.0000000000" y="238.0000000000" xlink:href="#block"/><use x="118.0000000000" y="238.0000000000" xlink:href="#block"/><use x="130.0000000000" y="238.0000000000" xlink:href="#block"/><use x="154.0000000000" y="238.0000000000" xlink:href="#block"/><use x="166.0000000000" y="238.0000000000" xlink:href="#block"/><use x="190.0000000000" y="238.0000000000" xlink:href="#block"/><use x="202.0000000000" y="238.0000000000" xlink:href="#block"/><use x="250.0000000000" y="238.0000000000" xlink:href="#block"/><use x="274.0000000000" y="238.0000000000" xlink:href="#block"/><use x="10.0000000000" y="250.0000000000" xlink:href="#block"/><use x="34.0000000000" y="250.0000000000" xlink:href="#block"/><use x="46.0000000000" y="250.0000000000" xlink:href="#block"/><use x="58.0000000000" y="250.0000000000" xlink:href="#block"/><use x="82.0000000000" y="250.0000000000" xlink:href="#block"/><use x="106.0000000000" y="250.0000000000" xlink:href="#block"/><use x="118.0000000000" y="250.0000000000" xlink:href="#block"/><use x="130.0000000000" y="250.0000000000" xlink:href="#block"/><use x="154.0000000000" y="250.0000000000" xlink:href="#block"/><use x="178.0000000000" y="250.0000000000" xlink:href="#block"/><use x="202.0000000000" y="250.0000000000" xlink:href="#block"/><use x="214.0000000000" y="250.0000000000" xlink:href="#block"/><use x="226.0000000000" y="250.0000000000" xlink:href="#block"/><use x="238.0000000000" y="250.0000000000" xlink:href="#block"/><use x="250.0000000000" y="250.0000000000" xlink:href="#block"/><use x="262.0000000000" y="250.0000000000" xlink:href="#block"/><use x="274.0000000000" y="250.0000000000" xlink:href="#block"/><use x="10.0000000000" y="262.0000000000" xlink:href="#block"/><use x="34.0000000000" y="262.0000000000" xlink:href="#block"/><use x="46.0000000000" y="262.0000000000" xlink:href="#block"/><use x="58.0000000000" y="262.0000000000" xlink:href="#block"/><use x="82.0000000000" y="262.0000000000" xlink:href="#block"/><use x="106.0000000000" y="262.0000000000" xlink:href="#block"/><use x="190.0000000000" y="262.0000000000" xlink:href="#block"/><use x="202.0000000000" y="262.0000000000" xlink:href="#block"/><use x="226.0000000000" y="262.0000000000" xlink:href="#block"/><use x="262.0000000000" y="262.0000000000" xlink:href="#block"/><use x="286.0000000000" y="262.0000000000" xlink:href="#block"/><use x="298.0000000000" y="262.0000000000" xlink:href="#block"/><use x="10.0000000000" y="274.0000000000" xlink:href="#block"/><use x="34.0000000000" y="274.0000000000" xlink:href="#block"/><use x="46.0000000000" y="274.0000000000" xlink:href="#block"/><use x="58.0000000000" y="274.0000000000" xlink:href="#block"/><use x="82.0000000000" y="274.0000000000" xlink:href="#block"/><use x="106.0000000000" y="274.0000000000" xlink:href="#block"/><use x="130.0000000000" y="274.0000000000" xlink:href="#block"/><use x="142.0000000000" y="274.0000000000" xlink:href="#block"/><use x="154.0000000000" y="274.0000000000" xlink:href="#block"/><use x="214.0000000000" y="274.0000000000" xlink:href="#block"/><use x="226.0000000000" y="274.0000000000" xlink:href="#block"/><use x="262.0000000000" y="274.0000000000" xlink:href="#block"/><use x="274.0000000000" y="274.0000000000" xlink:href="#block"/><use x="298.0000000000" y="274.0000000000" xlink:href="#block"/><use x="10.0000000000" y="286.0000000000" xlink:href="#block"/><use x="82.0000000000" y="286.0000000000" xlink:href="#block"/><use x="106.0000000000" y="286.0000000000" xlink:href="#block"/><use x="118.0000000000" y="286.0000000000" xlink:href="#block"/><use x="142.0000000000" y="286.0000000000" xlink:href="#block"/><use x="178.0000000000" y="286.0000000000" xlink:href="#block"/><use x="190.0000000000" y="286.0000000000" xlink:href="#block"/><use x="202.0000000000" y="286.0000000000" xlink:href="#block"/><use x="214.0000000000" y="286.0000000000" xlink:href="#block"/><use x="226.0000000000" y="286.0000000000" xlink:href="#block"/><use x="238.0000000000" y="286.0000000000" xlink:href="#block"/><use x="250.0000000000" y="286.0000000000" xlink:href="#block"/><use x="274.0000000000" y="286.0000000000" xlink:href="#block"/><use x="286.0000000000" y="286.0000000000" xlink:href="#block"/><use x="10.0000000000" y="298.0000000000" xlink:href="#block"/><use x="22.0000000000" y="298.0000000000" xlink:href="#block"/><use x="34.0000000000" y="298.0000000000" xlink:href="#block"/><use x="46.0000000000" y="298.0000000000" xlink:href="#block"/><use x="58.0000000000" y="298.0000000000" xlink:href="#block"/><use x="70.0000000000" y="298.0000000000" xlink:href="#block"/><use x="82.0000000000" y="298.0000000000" xlink:href="#block"/><use x="106.0000000000" y="298.0000000000" xlink:href="#block"/><use x="118.0000000000" y="298.0000000000" xlink:href="#block"/><use x="142.0000000000" y="298.0000000000" xlink:href="#block"/><use x="190.0000000000" y="298.0000000000" xlink:href="#block"/><use x="214.0000000000" y="298.0000000000" xlink:href="#block"/><use x="238.0000000000" y="298.0000000000" xlink:href="#block"/><use x="262.0000000000" y="298.0000000000" xlink:href="#block"/><use x="274.0000000000" y="298.0000000000" xlink:href="#block"/><use x="286.0000000000" y="298.0000000000" xlink:href="#block"/><use x="298.0000000000" y="298.0000000000" xlink:href="#block"/></svg>
